<?xml version="1.0" encoding="UTF-8" standalone="no"?>
<svg width="30px" height="24px" viewBox="0 0 30 24" version="1.1" xmlns="http://www.w3.org/2000/svg" xmlns:xlink="http://www.w3.org/1999/xlink">
    <!-- Generator: Sketch 44 (41411) - http://www.bohemiancoding.com/sketch -->
    <title>FBX Copy</title>
    <desc>Created with Sketch.</desc>
    <defs>
        <rect id="path-1" x="0" y="0" width="30" height="24" rx="3"></rect>
        <rect id="path-2" x="0" y="0" width="30" height="22" rx="3"></rect>
    </defs>
    <g id="Page-1" stroke="none" stroke-width="1" fill="none" fill-rule="evenodd">
        <g id="Landing" transform="translate(-600.000000, -1041.000000)">
            <g id="FBX-Copy" transform="translate(600.000000, 1041.000000)">
                <g id="Rectangle-20-Copy">
                    <use fill="#FFFFFF" fill-rule="evenodd" xlink:href="#path-1"></use>
                    <rect stroke="#C4A6FE" stroke-width="2" x="1" y="1" width="28" height="22" rx="3"></rect>
                </g>
                <g id="Rectangle-20">
                    <use fill="#FFFFFF" fill-rule="evenodd" xlink:href="#path-2"></use>
                    <rect stroke="#6C25F8" stroke-width="2" x="1" y="1" width="28" height="20" rx="3"></rect>
                </g>
                <path d="M5,7.01085482 L10.6990384,7.01085482 L10.6990384,8.4165536 L6.66880932,8.4165536 L6.66880932,10.256445 L10.1973049,10.256445 L10.1973049,11.6458616 L6.66880932,11.6458616 L6.66880932,15 L5,15 L5,7.01085482 Z M13.4531191,8.38941655 L13.4531191,10.1533243 L15.4273315,10.1533243 C15.780001,10.1533243 16.0663135,10.0872915 16.2862774,9.95522388 C16.5062414,9.82315628 16.6162218,9.5888755 16.6162218,9.25237449 C16.6162218,8.87969058 16.4707932,8.63365053 16.1799317,8.51424695 C15.9290637,8.43102627 15.6091209,8.38941655 15.2200937,8.38941655 L13.4531191,8.38941655 Z M13.4531191,11.4776119 L13.4531191,13.6105834 L15.4273315,13.6105834 C15.780001,13.6105834 16.0544974,13.5635464 16.2508289,13.4694708 C16.6071342,13.2957929 16.7852842,12.9629152 16.7852842,12.4708277 C16.7852842,12.0547243 16.6125877,11.7688836 16.2671898,11.6132972 C16.074494,11.5264582 15.8036334,11.4812302 15.4545996,11.4776119 L13.4531191,11.4776119 Z M17.6978574,7.85210312 C17.9450897,8.19222242 18.068704,8.59927398 18.068704,9.07327001 C18.068704,9.56173921 17.9450897,9.95431783 17.6978574,10.2510176 C17.5596982,10.417459 17.3560983,10.5694249 17.0870514,10.7069199 C17.4978932,10.8552699 17.8078378,11.0904552 18.0168945,11.412483 C18.2259512,11.7345109 18.330478,12.1252804 18.330478,12.5848033 C18.330478,13.0587993 18.2104994,13.483942 17.9705387,13.8602442 C17.8178364,14.1099063 17.6269615,14.319764 17.3979081,14.4898236 C17.1397685,14.6852113 16.8352775,14.819086 16.4844258,14.8914518 C16.1335742,14.9638176 15.7527332,15 15.3418913,15 L11.6988697,15 L11.6988697,7 L15.6036653,7 C16.5889586,7.01447316 17.2870156,7.29850469 17.6978574,7.85210312 Z M20.819056,15 L18.8666582,15 L21.4516765,10.9240163 L18.9920916,7 L20.9990257,7 L22.4333291,9.59972863 L23.9058079,7 L25.8472985,7 L23.3877135,10.8588874 L26,15 L23.9603442,15 L22.4333291,12.275441 L20.819056,15 Z" id="FBX" fill="#6C25F8"></path>
            </g>
        </g>
    </g>
</svg>