<?xml version="1.0" encoding="UTF-8"?>
<svg width="24px" height="25px" viewBox="0 0 24 25" version="1.1" xmlns="http://www.w3.org/2000/svg" xmlns:xlink="http://www.w3.org/1999/xlink">
    <!-- Generator: Sketch 44.1 (41455) - http://www.bohemiancoding.com/sketch -->
    <title>Upload</title>
    <desc>Created with Sketch.</desc>
    <defs>
        <path d="M2.32258065,4.6875 L17.8064516,4.6875 L17.8064516,4.6875 C19.0891775,4.6875 20.1290323,5.72735477 20.1290323,7.01008065 L20.1290323,22.6774194 L20.1290323,22.6774194 C20.1290323,23.9601452 19.0891775,25 17.8064516,25 L2.32258065,25 L2.32258065,25 C1.03985477,25 1.57088613e-16,23.9601452 0,22.6774194 L0,7.01008065 L0,7.01008065 C-1.57088613e-16,5.72735477 1.03985477,4.6875 2.32258065,4.6875 Z" id="path-1"></path>
        <rect id="path-2" x="3.87096774" y="0" width="20.1290323" height="20.3125" rx="2.32258065"></rect>
    </defs>
    <g id="Page-1" stroke="none" stroke-width="1" fill="none" fill-rule="evenodd">
        <g id="Landing" transform="translate(-100.000000, -593.000000)">
            <g id="Features" transform="translate(100.000000, 590.000000)">
                <g id="Upload" transform="translate(12.000000, 15.500000) scale(1, -1) translate(-12.000000, -15.500000) translate(0.000000, 3.000000)">
                    <g id="Group-17" transform="translate(12.000000, 12.500000) scale(-1, 1) translate(-12.000000, -12.500000) ">
                        <g id="Rectangle-21-Copy">
                            <use fill="#FFFFFF" fill-rule="evenodd" xlink:href="#path-1"></use>
                            <path stroke="#CD82C4" stroke-width="2" d="M2.32258065,5.6875 C1.59213952,5.6875 1,6.27963952 1,7.01008065 L1,22.6774194 C1,23.4078605 1.59213952,24 2.32258065,24 L17.8064516,24 C18.5368927,24 19.1290323,23.4078605 19.1290323,22.6774194 L19.1290323,7.01008065 C19.1290323,6.27963952 18.5368927,5.6875 17.8064516,5.6875 L2.32258065,5.6875 Z"></path>
                        </g>
                        <path d="M1.5,6 L5.24315126,1.40370656" id="Path-28-Copy-2" stroke="#CD82C4" stroke-width="2"></path>
                        <path d="M1.16129032,23.828125 L5.5,18.5" id="Path-28" stroke="#CD82C4" stroke-width="2"></path>
                        <path d="M18.7508797,23.5890916 L22.8027095,18.6392722" id="Path-28-Copy" stroke="#CD82C4" stroke-width="2"></path>
                        <g id="Rectangle-21">
                            <use fill="#FFFFFF" fill-rule="evenodd" xlink:href="#path-2"></use>
                            <rect stroke="#CC24B8" stroke-width="2" x="4.87096774" y="1" width="18.1290323" height="18.3125" rx="2.32258065"></rect>
                        </g>
                    </g>
                </g>
            </g>
        </g>
    </g>
</svg>