<?xml version="1.0" encoding="UTF-8" standalone="no"?>
<svg width="30px" height="26px" viewBox="0 0 30 26" version="1.1" xmlns="http://www.w3.org/2000/svg" xmlns:xlink="http://www.w3.org/1999/xlink">
    <!-- Generator: Sketch 44 (41411) - http://www.bohemiancoding.com/sketch -->
    <title>Crown</title>
    <desc>Created with Sketch.</desc>
    <defs>
        <polygon id="path-1" points="4 26 2 11 10 15 15 3 20 15 28 11 26 26"></polygon>
        <polygon id="path-2" points="4 24 2 9 10 13 15 1 20 13 28 9 26 24"></polygon>
    </defs>
    <g id="Page-1" stroke="none" stroke-width="1" fill="none" fill-rule="evenodd">
        <g id="Landing" transform="translate(-100.000000, -1041.000000)">
            <g id="Crown" transform="translate(115.000000, 1054.000000) scale(1, -1) translate(-115.000000, -1054.000000) translate(100.000000, 1041.000000)">
                <g id="Path-27-Copy">
                    <use fill="#FB9292" fill-rule="evenodd" xlink:href="#path-1"></use>
                    <path stroke="#FB9292" stroke-width="2" d="M4.8755164,25 L25.1244836,25 L26.7593704,12.7383488 L19.4889772,16.3735454 L15,5.6 L10.5110228,16.3735454 L3.24062957,12.7383488 L4.8755164,25 Z"></path>
                </g>
                <g id="Path-27">
                    <use fill="#FFFFFF" fill-rule="evenodd" xlink:href="#path-2"></use>
                    <path stroke="#F82525" stroke-width="2" d="M4.8755164,23 L25.1244836,23 L26.7593704,10.7383488 L19.4889772,14.3735454 L15,3.6 L10.5110228,14.3735454 L3.24062957,10.7383488 L4.8755164,23 Z"></path>
                </g>
                <circle id="Oval-11" fill="#F82525" cx="15" cy="2" r="2"></circle>
                <circle id="Oval-11-Copy" fill="#F82525" cx="2" cy="9" r="2"></circle>
                <circle id="Oval-11-Copy-2" fill="#F82525" cx="28" cy="9" r="2"></circle>
            </g>
        </g>
    </g>
</svg>