<?xml version="1.0" encoding="UTF-8" standalone="no"?>
<svg width="258px" height="258px" viewBox="0 0 258 258" version="1.1" xmlns="http://www.w3.org/2000/svg" xmlns:xlink="http://www.w3.org/1999/xlink">
    <!-- Generator: Sketch 44 (41411) - http://www.bohemiancoding.com/sketch -->
    <title>Sign Up Illo</title>
    <desc>Created with Sketch.</desc>
    <defs></defs>
    <g id="Page-1" stroke="none" stroke-width="1" fill="none" fill-rule="evenodd">
        <g id="Landing" transform="translate(-616.000000, -2444.000000)">
            <g id="Sign-Up-Illo" transform="translate(616.000000, 2444.000000)">
                <circle id="Oval-5" fill="#F0FBF5" cx="129" cy="129" r="129"></circle>
                <g id="Group-13" transform="translate(32.000000, 32.000000)" stroke-width="2">
                    <g id="Group-9-Copy" transform="translate(0.000000, 3.000000)" stroke="#C7DED1">
                        <polygon id="Polygon" transform="translate(93.000000, 97.830197) rotate(-13.000000) translate(-93.000000, -97.830197) " points="93 22 138.957665 36.9325504 167.361063 76.026475 167.361063 124.349223 138.957665 163.443148 93 178.375698 47.0423354 163.443148 18.6389366 124.349223 18.6389366 76.026475 47.0423354 36.9325504"></polygon>
                        <polygon id="Polygon-2" transform="translate(96.472272, 93.345352) rotate(23.000000) translate(-96.472272, -93.345352) " points="96.4722716 23.4426976 169.972272 76.8435734 141.89777 163.248005 51.0467734 163.248005 22.9722716 76.8435734"></polygon>
                        <polygon id="Star" fill="#D8D8D8" transform="translate(96.303685, 93.427126) rotate(23.000000) translate(-96.303685, -93.427126) " points="96.3036852 100.756742 51.187204 162.854251 96.3036852 100.756742 23.3036852 77.0376045 96.3036852 100.756742 96.3036852 24 96.3036852 100.756742 169.303685 77.0376045 96.3036852 100.756742 141.420166 162.854251"></polygon>
                    </g>
                    <g id="Group-9" transform="translate(3.000000, 0.000000)" stroke="#979797">
                        <polygon id="Polygon" transform="translate(93.000000, 97.830197) rotate(-13.000000) translate(-93.000000, -97.830197) " points="93 22 138.957665 36.9325504 167.361063 76.026475 167.361063 124.349223 138.957665 163.443148 93 178.375698 47.0423354 163.443148 18.6389366 124.349223 18.6389366 76.026475 47.0423354 36.9325504"></polygon>
                        <polygon id="Polygon-2" transform="translate(96.472272, 93.345352) rotate(23.000000) translate(-96.472272, -93.345352) " points="96.4722716 23.4426976 169.972272 76.8435734 141.89777 163.248005 51.0467734 163.248005 22.9722716 76.8435734"></polygon>
                        <polygon id="Star" fill="#D8D8D8" transform="translate(96.303685, 93.427126) rotate(23.000000) translate(-96.303685, -93.427126) " points="96.3036852 100.756742 51.187204 162.854251 96.3036852 100.756742 23.3036852 77.0376045 96.3036852 100.756742 96.3036852 24 96.3036852 100.756742 169.303685 77.0376045 96.3036852 100.756742 141.420166 162.854251"></polygon>
                    </g>
                </g>
            </g>
        </g>
    </g>
</svg>